<?xml version="1.0" encoding="utf-8"?>
<!-- Generator: Adobe Illustrator 24.3.0, SVG Export Plug-In . SVG Version: 6.00 Build 0)  -->
<svg version="1.1" id="Calque_1" xmlns="http://www.w3.org/2000/svg" xmlns:xlink="http://www.w3.org/1999/xlink" x="0px" y="0px"
	 viewBox="0 0 365 127" style="enable-background:new 0 0 365 127;" xml:space="preserve">
<style type="text/css">
	.st0{fill-rule:evenodd;clip-rule:evenodd;fill:#FFFFFF;}
	.st1{fill:#FFFFFF;}
</style>
<g id="Textes">
	<g>
		<g>
			<polygon class="st0" points="342.96,98.86 184.53,98.86 26.1,98.86 26.1,82.43 26.1,66.01 184.53,66.01 342.96,66.01 
				342.96,82.43 			"/>
		</g>
		<g>
			<path d="M45.32,86.38v4.96h-3.91V73.81c2.8,0,5.49,0,8.27,0c4.48,0,6.71,2.9,6.71,6.29c0,3.51-2.26,6.24-6.71,6.29H45.32z
				 M45.32,82.8h4.36c1.88,0,2.8-1.23,2.8-2.63s-0.95-2.65-2.8-2.65h-4.36V82.8z"/>
			<path d="M80.25,91.34h-4.34l-4.48-5.76H68.6v5.76h-3.91V73.81c2.85,0,5.49,0,8.32,0c4.24,0,6.49,2.83,6.49,5.91
				c-0.03,2.28-0.7,4.31-4.06,5.51l4.81,5.81L80.25,91.34L80.25,91.34z M68.6,77.16v5.11h4.46c1.8,0,2.58-1.35,2.58-2.46
				c-0.03-1.2-0.8-2.65-2.63-2.65H68.6z"/>
			<path d="M96.97,91.77c-5.61,0-9.47-3.48-9.47-9.19c0-5.71,3.86-9.19,9.47-9.19c5.61,0,9.47,3.48,9.47,9.19
				C106.43,88.29,102.58,91.77,96.97,91.77z M96.97,76.89c-3.33,0-5.64,2.51-5.64,5.68c0,3.28,2.31,5.66,5.64,5.66
				c3.41,0,5.64-2.41,5.64-5.66C102.6,79.37,100.37,76.89,96.97,76.89z"/>
			<path d="M115.11,91.34V73.83h12.77v3.58h-8.87v4.16h8.32v3.48h-8.32v6.29L115.11,91.34L115.11,91.34z"/>
			<path d="M149.91,91.34h-13.36c0-5.83,0-11.7,0-17.54h13v3.58h-9.17v3.38h8.64v3.43h-8.64v3.53h9.52L149.91,91.34L149.91,91.34z"
				/>
			<path d="M169.13,78.04c-0.98-1.03-2.68-1.48-4.06-1.48c-1.73,0-3.13,0.72-3.13,1.93c0,1.6,1.53,1.9,3.78,2.11
				c3.46,0.3,6.74,1.63,6.74,5.68c0,3.91-3.61,5.61-7.39,5.64c-3.03,0.03-6.19-1.15-7.66-3.61l2.33-2.43
				c1.35,1.73,3.58,2.48,5.36,2.48c2.08,0,3.51-0.82,3.51-2.08c0.02-1.48-1.16-2.16-3.53-2.36c-3.71-0.35-7.01-1.28-6.96-5.41
				c0.03-3.48,3.33-5.34,6.94-5.34c2.7,0,4.73,0.6,6.54,2.7L169.13,78.04z"/>
			<path d="M191.28,78.04c-0.98-1.03-2.68-1.48-4.06-1.48c-1.73,0-3.13,0.72-3.13,1.93c0,1.6,1.53,1.9,3.78,2.11
				c3.46,0.3,6.74,1.63,6.74,5.68c0,3.91-3.61,5.61-7.39,5.64c-3.03,0.03-6.19-1.15-7.66-3.61l2.33-2.43
				c1.35,1.73,3.58,2.48,5.36,2.48c2.08,0,3.51-0.82,3.51-2.08c0.02-1.48-1.16-2.16-3.53-2.36c-3.71-0.35-7.01-1.28-6.96-5.41
				c0.03-3.48,3.33-5.34,6.94-5.34c2.7,0,4.73,0.6,6.54,2.7L191.28,78.04z"/>
			<path d="M203.06,91.34V73.81h3.88v17.54H203.06z"/>
			<path d="M225.08,91.77c-5.61,0-9.47-3.48-9.47-9.19c0-5.71,3.86-9.19,9.47-9.19s9.47,3.48,9.47,9.19
				C234.55,88.29,230.7,91.77,225.08,91.77z M225.08,76.89c-3.33,0-5.64,2.51-5.64,5.68c0,3.28,2.31,5.66,5.64,5.66
				c3.41,0,5.64-2.41,5.64-5.66C230.72,79.37,228.49,76.89,225.08,76.89z"/>
			<path d="M255.43,85.2l-0.25-5.51v-5.88h3.93v17.54h-3.36l-8.72-11.22l0.15,5.76v5.46h-3.96V73.81h3.36L255.43,85.2z"/>
			<path d="M280.97,85.2l-0.25-5.51v-5.88h3.93v17.54h-3.36l-8.72-11.22l0.15,5.76v5.46h-3.96V73.81h3.36L280.97,85.2z"/>
			<path d="M307.68,91.34h-13.36c0-5.83,0-11.7,0-17.54h13v3.58h-9.16v3.38h8.64v3.43h-8.64v3.53h9.52V91.34z"/>
			<path d="M320.43,73.81v13.95h8.77v3.58h-12.67V73.81L320.43,73.81L320.43,73.81z"/>
		</g>
		<g>
			<g>
				<path class="st1" d="M224.83,111.91l-2.91,1.84c-0.9-1.44-2.65-2.29-4.94-2.29c-2.06,0-3.59,0.67-3.59,1.75
					c0,1.31,1.75,1.61,3.86,2.02l2.33,0.4c2.78,0.49,5.43,1.44,5.43,4.45c0,3.86-4.35,5.16-8.26,5.16c-3.1,0-6.33-1.12-8.17-3.32
					l3.05-1.8c1.35,1.61,3.37,2.38,5.7,2.38c1.7,0,3.99-0.49,3.99-2.02c0-1.21-1.39-1.57-3.9-2.07l-2.11-0.4
					c-3.01-0.58-5.66-1.48-5.66-4.35c0-3.32,3.82-4.94,7.32-4.94C220.21,108.72,222.86,109.75,224.83,111.91"/>
				<rect x="200.5" y="109.13" class="st1" width="3.54" height="15.71"/>
				<path class="st1" d="M191.52,118.51l4.18,6.33h-4.09l-3.63-5.79h-3.41v5.79h-3.54v-15.71h7.86c3.99,0,6.37,2.02,6.37,4.76
					C195.24,117.43,192.42,118.23,191.52,118.51 M188.43,116.49c1.8,0,3.1-0.9,3.1-2.38c0-1.44-1.17-2.33-3.63-2.33h-3.32v4.71
					H188.43z"/>
				<path class="st1" d="M170.38,109.12l6.33,15.71h-3.73l-1.08-3.05h-7.14l-1.08,3.05h-3.73l6.28-15.71H170.38z M170.92,119.18
					l-2.56-7.18h-0.04l-2.6,7.18H170.92z"/>
				<path class="st1" d="M156.95,114.42c0,3.1-2.6,5.12-6.33,5.12h-4.18v5.3h-3.54v-15.71h7.49
					C154.8,109.12,156.95,111.41,156.95,114.42 M149.95,117.07c2.25,0,3.32-1.12,3.32-2.65c0-2.16-1.44-2.83-3.46-2.83h-3.37v5.47
					H149.95z"/>
			</g>
		</g>
		<g>
			<polygon class="st1" points="198.51,55.74 239.42,55.74 239.42,50.76 205.53,50.76 205.53,34.76 230.98,34.76 230.98,29.7 
				205.53,29.7 205.53,14.98 239.42,14.98 239.42,10 198.51,10 			"/>
			<polygon class="st1" points="219.78,2.61 214.22,8.83 231.62,2.61 			"/>
			<polygon class="st1" points="308.1,50.75 308.1,10 301.7,10 301.7,55.74 343.06,55.74 343.06,50.75 			"/>
			<path class="st1" d="M265.94,10l-23.26,45.74h7.85l5.96-11.84h27.9l5.99,11.84h7.79L274.89,10H265.94z M259.43,38.18l10.97-21.85
				l11.09,21.85H259.43z"/>
			<path class="st1" d="M176.31,36.62c10.5-2.81,11.5-10.6,11.46-13.38C187.14,15.07,181.64,10,171.73,10H142.9v45.74h6.56V36.56
				h18.77l13.81,19.18h8.28C190.35,55.74,180.4,42.82,176.31,36.62 M170.84,31.15h-21.37V15.43h22.11c5.08,0,7.95,2.37,8.99,5.39
				c0.67,2.07,0.25,4.78-0.89,6.64C177.85,30.5,174.33,31.15,170.84,31.15"/>
			<path class="st1" d="M103.4,2.26c-18.55,0-31.19,13.07-31.19,28.92c0,16.67,13.96,28.43,31.19,28.43s31.19-11.6,31.19-28.43
				C134.59,15.33,121.78,2.26,103.4,2.26 M103.18,53.93c-12.84,0-23.41-10.32-23.41-22.75c0-12.41,10.08-23.22,23.91-23.22
				c13.49,0,23.41,10.81,23.41,23.22C127.09,43.61,116.02,53.93,103.18,53.93"/>
			<polygon class="st1" points="55.63,26.18 60.39,26.18 69,10 62.07,10 			"/>
			<polygon class="st1" points="32.46,50.75 32.46,10 26.05,10 26.05,55.74 67.42,55.74 67.42,50.75 			"/>
		</g>
	</g>
</g>
</svg>
